<svg width="101" height="54" viewBox="0 0 101 54" fill="none" xmlns="http://www.w3.org/2000/svg">
<g filter="url(#filter0_d_1201_9029)">
<path d="M28.064 1.824C29.248 1.824 30.08 2.208 30.56 2.976C31.04 3.712 31.28 4.528 31.28 5.424C31.28 5.84 31.216 6.256 31.088 6.672C30.992 7.088 30.816 7.456 30.56 7.776C30.304 8.096 29.968 8.368 29.552 8.592C29.136 8.784 28.64 8.88 28.064 8.88H15.68C15.232 8.88 14.896 8.96 14.672 9.12C14.48 9.28 14.384 9.584 14.384 10.032V18.048C14.384 18.496 14.48 18.8 14.672 18.96C14.896 19.12 15.232 19.2 15.68 19.2H29.888C30.496 19.2 31.008 19.312 31.424 19.536C31.84 19.728 32.176 19.984 32.432 20.304C32.688 20.624 32.864 20.992 32.96 21.408C33.088 21.792 33.152 22.192 33.152 22.608C33.152 23.504 32.896 24.336 32.384 25.104C31.904 25.84 31.072 26.208 29.888 26.208H11.504C10.224 26.208 9.152 26.096 8.288 25.872C7.456 25.648 6.784 25.28 6.272 24.768C5.792 24.256 5.44 23.6 5.216 22.8C5.024 21.968 4.928 20.96 4.928 19.776V8.256C4.928 7.072 5.024 6.08 5.216 5.28C5.44 4.448 5.792 3.776 6.272 3.264C6.784 2.752 7.456 2.384 8.288 2.16C9.152 1.936 10.224 1.824 11.504 1.824H28.064ZM10.592 36.48C9.248 36.48 8.208 36.128 7.472 35.424C6.768 34.72 6.416 33.808 6.416 32.688C6.416 31.568 6.768 30.656 7.472 29.952C8.208 29.248 9.248 28.896 10.592 28.896H40.304C41.808 28.896 43.024 29.008 43.952 29.232C44.88 29.456 45.6 29.856 46.112 30.432C46.624 31.008 46.96 31.776 47.12 32.736C47.312 33.664 47.408 34.848 47.408 36.288V45.648H37.712V37.632C37.712 36.864 37.328 36.48 36.56 36.48H10.592ZM37.616 17.424H30.512C29.424 17.424 28.592 17.088 28.016 16.416C27.44 15.712 27.152 14.896 27.152 13.968C27.152 13.04 27.408 12.224 27.92 11.52C28.464 10.816 29.328 10.464 30.512 10.464H37.616V5.232C37.616 3.696 38.096 2.544 39.056 1.776C40.016 0.975998 41.12 0.575998 42.368 0.575998C42.976 0.575998 43.568 0.687998 44.144 0.911997C44.72 1.104 45.232 1.392 45.68 1.776C46.128 2.16 46.48 2.64 46.736 3.216C47.024 3.792 47.168 4.464 47.168 5.232V27.024H37.616V17.424ZM78.4482 34.656V45.888H68.6562V34.656H55.1202C53.6802 34.656 52.6402 34.256 52.0002 33.456C51.3922 32.624 51.0882 31.712 51.0882 30.72C51.0882 30.24 51.1522 29.76 51.2802 29.28C51.4402 28.8 51.6802 28.384 52.0002 28.032C52.3202 27.648 52.7362 27.344 53.2482 27.12C53.7602 26.864 54.3842 26.736 55.1202 26.736H62.1762C63.1362 25.264 63.9202 23.472 64.5282 21.36C65.1362 19.216 65.4402 16.672 65.4402 13.728V11.136C65.4402 10.816 65.3442 10.544 65.1522 10.32C64.9922 10.064 64.7362 9.936 64.3842 9.936H56.8002C56.0642 9.936 55.4242 9.824 54.8802 9.6C54.3682 9.344 53.9362 9.024 53.5842 8.64C53.2642 8.224 53.0082 7.776 52.8162 7.296C52.6562 6.784 52.5762 6.288 52.5762 5.808C52.5762 5.328 52.6562 4.848 52.8162 4.368C52.9762 3.888 53.2322 3.456 53.5842 3.072C53.9362 2.656 54.3682 2.336 54.8802 2.112C55.4242 1.856 56.0642 1.728 56.8002 1.728H86.3682C87.7762 1.728 88.9442 1.872 89.8722 2.16C90.8322 2.416 91.6002 2.832 92.1762 3.408C92.7522 3.952 93.1522 4.656 93.3762 5.52C93.6322 6.384 93.7602 7.408 93.7602 8.592V13.776C93.7602 16.304 93.5842 18.672 93.2322 20.88C92.8802 23.056 92.3842 25.008 91.7442 26.736H91.9842C92.7202 26.736 93.3442 26.864 93.8562 27.12C94.3682 27.344 94.7842 27.648 95.1042 28.032C95.4242 28.384 95.6482 28.8 95.7762 29.28C95.9362 29.76 96.0162 30.24 96.0162 30.72C96.0162 31.712 95.6962 32.624 95.0562 33.456C94.4482 34.256 93.4242 34.656 91.9842 34.656H78.4482ZM74.7522 13.776C74.7522 16.336 74.5282 18.704 74.0802 20.88C73.6642 23.056 73.0402 25.008 72.2082 26.736H82.2882C82.9922 25.232 83.5202 23.408 83.8722 21.264C84.2562 19.12 84.4482 16.608 84.4482 13.728V11.136C84.4482 10.784 84.3362 10.496 84.1122 10.272C83.9202 10.048 83.6322 9.936 83.2482 9.936H74.7522V13.776Z" fill="url(#paint0_linear_1201_9029)"/>
</g>
<defs>
<filter id="filter0_d_1201_9029" x="0.929688" y="0.57605" width="99.0859" height="53.312" filterUnits="userSpaceOnUse" color-interpolation-filters="sRGB">
<feFlood flood-opacity="0" result="BackgroundImageFix"/>
<feColorMatrix in="SourceAlpha" type="matrix" values="0 0 0 0 0 0 0 0 0 0 0 0 0 0 0 0 0 0 127 0" result="hardAlpha"/>
<feOffset dy="4"/>
<feGaussianBlur stdDeviation="2"/>
<feComposite in2="hardAlpha" operator="out"/>
<feColorMatrix type="matrix" values="0 0 0 0 0 0 0 0 0 0 0 0 0 0 0 0 0 0 0.25 0"/>
<feBlend mode="normal" in2="BackgroundImageFix" result="effect1_dropShadow_1201_9029"/>
<feBlend mode="normal" in="SourceGraphic" in2="effect1_dropShadow_1201_9029" result="shape"/>
</filter>
<linearGradient id="paint0_linear_1201_9029" x1="7.87234" y1="1.55266" x2="95.8754" y2="7.91522" gradientUnits="userSpaceOnUse">
<stop stop-color="#7000FF"/>
<stop offset="1" stop-color="#C15CFF"/>
</linearGradient>
</defs>
</svg>
